<svg xmlns="http://www.w3.org/2000/svg" viewBox="0 0 2608.65 3333.33" shape-rendering="geometricPrecision" text-rendering="geometricPrecision" image-rendering="optimizeQuality" fill-rule="evenodd" clip-rule="evenodd"><path d="M1701.93 2992.18l582.69-612.38h-582.69v612.38zM1253.87 708.96c0-13.94 5.57-26.48 14.77-35.68 8.92-8.92 21.46-14.49 35.26-14.78h.42c13.94 0 26.48 5.57 35.53 14.78 9.06 8.92 14.64 21.46 14.91 35.26v169.04l168.78.14c13.93 0 26.47 5.57 35.53 14.64 9.06 9.05 14.64 21.46 14.91 35.39v.42c0 13.8-5.57 26.35-14.77 35.55-8.92 8.92-21.47 14.63-35.27 14.77l-169.19.15v168.63c0 13.94-5.57 26.48-14.77 35.67a50.653 50.653 0 01-35.26 14.78h-.42c-13.8 0-26.48-5.57-35.53-14.64-9.06-9.06-14.64-21.6-14.78-35.4l-.13-169.04h-168.78c-13.78 0-26.47-5.72-35.53-14.78-9.06-9.05-14.64-21.59-14.77-35.39v-.29c-.15-13.93 5.57-26.46 14.62-35.67 8.92-8.92 21.47-14.63 35.4-14.77l169.06-.14V708.97zm50.44-320.68c35.13 0 69.69 3.49 102.99 10.03 34.29 6.83 67.31 17 98.95 29.96 32.33 13.39 63 29.83 91.57 49.07 28.84 19.23 55.74 41.25 80.13 65.78 24.53 24.38 46.55 51.28 65.79 80.13 19.09 28.57 35.53 59.24 48.91 91.42 13.1 31.64 23.27 64.81 29.96 98.95 6.69 33.44 10.18 67.88 10.18 103.13 0 35.13-3.49 69.69-10.18 102.99-6.69 34.29-16.85 67.46-29.96 98.95l-.15.42c-13.38 32.06-29.68 62.58-48.64 91a529.701 529.701 0 01-65.92 80.28c-24.38 24.4-51.29 46.42-80.13 65.79a529.622 529.622 0 01-91.57 48.91l-.28.15c-31.51 12.96-64.54 23.12-98.68 29.83-33.3 6.69-67.86 10.17-102.99 10.17-35.26 0-69.69-3.48-103.13-10.17-34.14-6.7-67.17-16.87-98.81-29.97-32.33-13.38-63-29.83-91.57-48.91-28.84-19.37-55.74-41.39-80.13-65.79a529.701 529.701 0 01-65.92-80.28c-18.96-28.57-35.4-59.22-48.78-91.42-13.1-31.49-23.27-64.67-29.96-98.95-6.69-33.3-10.18-67.86-10.18-102.99 0-35.26 3.49-69.69 10.18-103.13 6.69-34.14 16.85-67.31 29.96-98.95a533.403 533.403 0 0148.91-91.42c19.24-28.84 41.26-55.74 65.79-80.13 24.38-24.53 51.29-46.55 80.13-65.78 28.57-19.24 59.24-35.68 91.57-49.07l.28-.13c31.51-12.96 64.54-22.99 98.68-29.83 33.3-6.54 67.73-10.03 102.99-10.03zm292.25 236.22c-19.09-19.23-40.27-36.52-62.85-51.56-22.3-15.06-46.26-27.89-71.21-38.2a409.018 409.018 0 00-77.35-23.41c-26.06-5.01-53.11-7.8-80.84-7.8-27.73 0-54.78 2.8-80.97 7.8-26.76 5.3-52.69 13.25-77.22 23.41-24.94 10.31-48.91 23.14-71.21 38.2-22.59 15.04-43.77 32.33-62.85 51.56-19.09 19.1-36.52 40.28-51.57 62.85-15.05 22.3-27.87 46.26-38.19 71.21-10.18 24.53-17.98 50.46-23.41 77.35-5.01 26.06-7.81 53.11-7.81 80.84 0 27.59 2.8 54.63 7.81 80.69 5.43 26.9 13.23 52.82 23.41 77.35 10.31 25.09 23.14 48.93 38.19 71.22 15.06 22.72 32.48 43.76 51.57 62.85 19.09 19.23 40.27 36.52 62.85 51.7a410.462 410.462 0 0071.21 38.04c24.53 10.18 50.46 18.13 77.22 23.41 26.19 5.17 53.24 7.81 80.97 7.81 27.73 0 54.78-2.64 80.97-7.81 26.76-5.28 52.69-13.23 77.22-23.41l.28-.13a407.699 407.699 0 0070.93-37.91c22.59-15.19 43.77-32.48 62.85-51.7 19.09-19.1 36.52-40.13 51.57-62.85a397.77 397.77 0 0038.19-71.22c10.18-24.53 17.98-50.44 23.41-77.35 5.01-26.06 7.81-53.1 7.81-80.69 0-27.73-2.8-54.78-7.81-80.84-5.43-26.89-13.23-52.82-23.41-77.35-10.31-24.95-23.14-48.91-38.19-71.21-15.06-22.57-32.48-43.76-51.57-62.85zM513.55 2442.11h521.65v150.09H513.55v-150.09zm0-380.89h740.32v149.96H513.55v-149.96zm0-380.89h1581.53v149.96H513.55v-149.96zm2095.09 621.3c0 44.18-29.83 82.5-70.52 93.5l-858.22 902.4c-17.98 22.15-45.15 35.81-74.97 35.81H174.34c-48.49 0-91.84-19.65-123.33-51C19.52 3250.83 0 3207.35 0 3158.99V174.34C0 125.85 19.52 82.5 51.01 51.01 82.5 19.52 126.68 0 174.34 0H2434.3c47.66 0 91.84 19.52 123.33 51.01 31.49 31.49 51.01 74.84 51.01 123.33v2127.28zm-194.83-116.51V194.84H194.83v2944.51h1312.4v-856.39c0-53.66 43.35-97.83 97.7-97.83h808.88z" fill-rule="nonzero"/></svg>